HIERARCHY
ROOT Hips
{
	OFFSET	0.00	0.00	0.00
	CHANNELS 6 Xposition Yposition Zposition Zrotation Xrotation Yrotation
	JOINT LeftUpLeg
	{
		OFFSET	 0.126116	-0.065224	 0.014019
		CHANNELS 3 Zrotation Xrotation Yrotation
		JOINT LeftLeg
		{
			OFFSET	 0.000000	 0.569914	 0.000000
			CHANNELS 3 Zrotation Xrotation Yrotation
			JOINT LeftFoot
			{
				OFFSET	 0.000000	 0.544423	 0.000000
				CHANNELS 3 Zrotation Xrotation Yrotation
				JOINT LeftToeBase
				{
					OFFSET	 0.000000	 0.207117	 0.000000
					CHANNELS 3 Zrotation Xrotation Yrotation
					End Site
					{
						OFFSET	 0.000000	 0.207117	 0.000000
					}
				}
			}
		}
	}
	JOINT RightUpLeg
	{
		OFFSET	-0.124023	-0.065224	 0.008373
		CHANNELS 3 Zrotation Xrotation Yrotation
		JOINT RightLeg
		{
			OFFSET	 0.000000	 0.570047	 0.000000
			CHANNELS 3 Zrotation Xrotation Yrotation
			JOINT RightFoot
			{
				OFFSET	 0.000000	 0.544354	 0.000000
				CHANNELS 3 Zrotation Xrotation Yrotation
				JOINT RightToeBase
				{
					OFFSET	 0.000000	 0.207540	 0.000000
					CHANNELS 3 Zrotation Xrotation Yrotation
					End Site
					{
						OFFSET	 0.000000	 0.207540	 0.000000
					}
				}
			}
		}
	}
	JOINT Spine
	{
		OFFSET	 0.000184	 0.117403	 0.007763
		CHANNELS 3 Zrotation Xrotation Yrotation
		JOINT Spine1
		{
			OFFSET	 0.000000	 0.137269	 0.000000
			CHANNELS 3 Zrotation Xrotation Yrotation
			JOINT Spine2
			{
				OFFSET	 0.000000	 0.156879	 0.000000
				CHANNELS 3 Zrotation Xrotation Yrotation
				JOINT LeftShoulder
				{
					OFFSET	 0.080501	 0.160143	 0.002496
					CHANNELS 3 Zrotation Xrotation Yrotation
					JOINT LeftArm
					{
						OFFSET	 0.000000	 0.164363	 0.000000
						CHANNELS 3 Zrotation Xrotation Yrotation
						JOINT LeftForeArm
						{
							OFFSET	 0.000000	 0.364576	 0.000000
							CHANNELS 3 Zrotation Xrotation Yrotation
							JOINT LeftHand
							{
								OFFSET	 0.000000	 0.360812	 0.000000
								CHANNELS 3 Zrotation Xrotation Yrotation
								JOINT LeftHandIndex1
								{
									OFFSET	 0.000000	 0.086006	 0.000000
									CHANNELS 3 Zrotation Xrotation Yrotation
									JOINT LeftHandIndex2
									{
										OFFSET	 0.000000	 0.047237	 0.000000
										CHANNELS 3 Zrotation Xrotation Yrotation
										JOINT LeftHandIndex3
										{
											OFFSET	-0.004284	 0.038165	 0.000551
											CHANNELS 3 Zrotation Xrotation Yrotation
											End Site
											{
												OFFSET	-0.004284	 0.038165	 0.000551
											}
										}
									}
								}
							}
						}
					}
				}
				JOINT Neck
				{
					OFFSET	 0.000000	 0.176489	 0.000000
					CHANNELS 3 Zrotation Xrotation Yrotation
					JOINT Head
					{
						OFFSET	 0.000000	 0.077941	 0.001747
						CHANNELS 3 Zrotation Xrotation Yrotation
						End Site
						{
							OFFSET	 0.000000	 0.077941	 0.001747
						}
					}
				}
				JOINT RightShoulder
				{
					OFFSET	-0.080363	 0.159706	-0.000306
					CHANNELS 3 Zrotation Xrotation Yrotation
					JOINT RightArm
					{
						OFFSET	 0.000000	 0.164196	 0.000000
						CHANNELS 3 Zrotation Xrotation Yrotation
						JOINT RightForeArm
						{
							OFFSET	 0.000000	 0.365611	 0.000000
							CHANNELS 3 Zrotation Xrotation Yrotation
							JOINT RightHand
							{
								OFFSET	 0.000000	 0.360648	 0.000000
								CHANNELS 3 Zrotation Xrotation Yrotation
								JOINT RightHandIndex1
								{
									OFFSET	 0.000000	 0.069977	 0.000000
									CHANNELS 3 Zrotation Xrotation Yrotation
									JOINT RightHandIndex2
									{
										OFFSET	 0.000000	 0.052305	 0.000000
										CHANNELS 3 Zrotation Xrotation Yrotation
										JOINT RightHandIndex3
										{
											OFFSET	 0.009002	 0.042196	 0.000782
											CHANNELS 3 Zrotation Xrotation Yrotation
											End Site
											{
												OFFSET	 0.009002	 0.042196	 0.000782
											}
										}
									}
								}
							}
						}
					}
				}
			}
		}
	}
}
MOTION
Frames:    8
Frame Time: 0.03333334
 0.002159	 1.271263	 0.063392	-0.321047	 0.003947	-179.994000	-177.110900	 0.855324	-11.259710	 2.104724	-9.835032	-0.076340	-5.326021	 69.630570	 4.705739	 1.292262	 28.425850	-2.713146	 176.493400	 2.056943	 11.237420	-2.462994	-11.806320	 0.011540	 5.552127	 70.525520	-4.839495	-1.288183	 28.361890	 2.710176	-0.070383	 2.876843	 7.496745	-1.762774	 3.283429	 3.982472	 1.648601	-4.124495	-11.595580	-101.478000	 1.740682	 90.353370	 3.346843	 65.528010	-0.027448	 2.264494	 4.596866	 1.281150	 23.387160	-13.965730	 25.885530	-6.580301	 5.266122	 0.000000	 0.000000	 0.000000	 0.000000	 0.000000	 0.000000	 0.000000	 0.089846	-3.783161	 0.005928	 0.024143	 0.963182	-2.871726	 101.796200	-0.213313	-89.955440	-4.716145	 61.986570	-3.842941	-8.494458	 12.673220	 2.306944	 5.118867	-31.270940	 32.784320	 15.208500	 5.323790	 0.000000	 0.000000	 0.000000	 0.000000	 0.000000	 0.000000	 0.000000
 0.002158	 1.271972	 0.063344	-0.321050	 0.003949	-179.994000	-177.078800	 0.855620	-11.634280	 2.104726	-9.835045	-0.076344	-5.297499	 69.485760	 4.682299	 1.292262	 28.425850	-2.713146	 176.454800	 2.057041	 11.612300	-2.462978	-11.806250	 0.011546	 5.520049	 70.382420	-4.813612	-1.288183	 28.361890	 2.710176	 0.006265	 2.877698	 5.969839	-1.762795	 3.283427	 3.982471	 1.648613	-4.124492	-11.595580	-101.478000	 1.740670	 90.353370	 3.327600	 65.417900	-0.014413	 2.811672	 4.613209	 0.542342	 24.082570	-15.267290	 25.720620	-6.580301	 5.266122	 0.000000	 0.000000	 0.000000	 0.000000	 0.000000	 0.000000	 0.000000	 0.089846	-3.783161	 0.005928	 0.024143	 0.963182	-2.871726	 101.796200	-0.213323	-89.955450	-3.242940	 60.359000	-5.113475	-11.316830	 15.851570	 3.653907	 6.683407	-34.652440	 33.145320	 15.208500	 5.323790	 0.000000	 0.000000	 0.000000	 0.000000	 0.000000	 0.000000	 0.000000
 0.002157	 1.272670	 0.063299	-0.321041	 0.003949	-179.994000	-177.047100	 0.855621	-12.003260	 2.104682	-9.834845	-0.076350	-5.269633	 69.343060	 4.659620	 1.292262	 28.425850	-2.713146	 176.416900	 2.056936	 11.981570	-2.462985	-11.806280	 0.011546	 5.488807	 70.241600	-4.788587	-1.288183	 28.361890	 2.710176	 0.129002	 2.874814	 3.524409	-1.762784	 3.283425	 3.982469	 1.648604	-4.124492	-11.595580	-101.478000	 1.740691	 90.353390	 3.302745	 65.293000	 0.001511	 3.688059	 4.636030	-0.642779	 25.212890	-17.388230	 25.512060	-6.580301	 5.266122	 0.000000	 0.000000	 0.000000	 0.000000	 0.000000	 0.000000	 0.000000	 0.089846	-3.783161	 0.005928	 0.024143	 0.963182	-2.871726	 101.796200	-0.213323	-89.955450	-1.744441	 58.359350	-6.367013	-15.244000	 19.838010	 5.948334	 8.970306	-39.604710	 33.859420	 15.208500	 5.323790	 0.000000	 0.000000	 0.000000	 0.000000	 0.000000	 0.000000	 0.000000
 0.002156	 1.273582	 0.063238	-0.321054	 0.003949	-179.994000	-177.005700	 0.855482	-12.485600	 2.104719	-9.835012	-0.076347	-5.233842	 69.156800	 4.630796	 1.292262	 28.425850	-2.713146	 176.367200	 2.056405	 12.464280	-2.462981	-11.806260	 0.011545	 5.448539	 70.057530	-4.756697	-1.288183	 28.361890	 2.710176	 0.356959	 2.855499	-1.033670	-1.762809	 3.283432	 3.982470	 1.648617	-4.124494	-11.595580	-101.478000	 1.740680	 90.353380	 3.258976	 65.099550	 0.027043	 5.330419	 4.672887	-2.866347	 27.371560	-21.322680	 25.255250	-6.580301	 5.266122	 0.000000	 0.000000	 0.000000	 0.000000	 0.000000	 0.000000	 0.000000	 0.089846	-3.783161	 0.005928	 0.024143	 0.963182	-2.871726	 101.796200	-0.213320	-89.955440	-0.085642	 55.407290	-7.674085	-22.095450	 25.805520	 10.775280	 13.335370	-48.285310	 35.771490	 15.208500	 5.323790	 0.000000	 0.000000	 0.000000	 0.000000	 0.000000	 0.000000	 0.000000
 0.002155	 1.274213	 0.063197	-0.321052	 0.003947	-179.994000	-176.977100	 0.854961	-12.818940	 2.104640	-9.834654	-0.076359	-5.209285	 69.027860	 4.611263	 1.292262	 28.425850	-2.713146	 176.332900	 2.055778	 12.797870	-2.462973	-11.806230	 0.011548	 5.421079	 69.930350	-4.735164	-1.288183	 28.361890	 2.710176	 0.553885	 2.823939	-5.006966	-1.762841	 3.283438	 3.982472	 1.648628	-4.124505	-11.595570	-101.478000	 1.740667	 90.353380	 3.218942	 64.940120	 0.050255	 6.782381	 4.702219	-4.832864	 29.303410	-24.671080	 25.152930	-6.580301	 5.266122	 0.000000	 0.000000	 0.000000	 0.000000	 0.000000	 0.000000	 0.000000	 0.089846	-3.783161	 0.005928	 0.024143	 0.963182	-2.871726	 101.796200	-0.213314	-89.955450	 0.730499	 53.255360	-8.242634	-28.140380	 30.168630	 15.636470	 17.774500	-55.592730	 38.313930	 15.208500	 5.323790	 0.000000	 0.000000	 0.000000	 0.000000	 0.000000	 0.000000	 0.000000
 0.002147	 1.279350	 0.062857	-0.321050	 0.003949	-179.994000	-176.743900	 0.846110	-15.536720	 2.104720	-9.835015	-0.076341	-5.018475	 67.979450	 4.465948	 1.292262	 28.425850	-2.713146	 176.053600	 2.043411	 15.517540	-2.462983	-11.806270	 0.011546	 5.207033	 68.894870	-4.573913	-1.288183	 28.361890	 2.710176	 1.648615	 2.358981	-28.868860	-1.762806	 3.283430	 3.982472	 1.648615	-4.124498	-11.595580	-101.478000	 1.740665	 90.353360	 1.539846	 61.375990	 1.365870	 23.135170	 6.579434	-26.413030	 30.878470	-27.107040	 16.954430	-6.580301	 5.266122	 0.000000	 0.000000	 0.000000	 0.000000	 0.000000	 0.000000	 0.000000	 0.089846	-3.783161	 0.005928	 0.024143	 0.963182	-2.871726	 101.796200	-0.213314	-89.955450	-23.804660	 46.467980	 16.160320	-104.284500	 39.499920	 91.378140	-161.217200	-70.891850	-177.985900	 15.208500	 5.323790	 0.000000	 0.000000	 0.000000	 0.000000	 0.000000	 0.000000	 0.000000
 0.002145	 1.280025	 0.062812	-0.321050	 0.003949	-179.994000	-176.713300	 0.844101	-15.894180	 2.104721	-9.835015	-0.076347	-4.994471	 67.841700	 4.448580	 1.292262	 28.425850	-2.713146	 176.016900	 2.040781	 15.875240	-2.462973	-11.806220	 0.011549	 5.180111	 68.758840	-4.554540	-1.288183	 28.361890	 2.710176	 1.400935	 2.513926	-23.047660	-1.762817	 3.283432	 3.982472	 1.648622	-4.124499	-11.595580	-101.478000	 1.740677	 90.353360	 1.261658	 60.663190	 1.577762	 24.021440	 6.851665	-27.540060	 25.529360	-17.182080	 14.402790	-6.580301	 5.266122	 0.000000	 0.000000	 0.000000	 0.000000	 0.000000	 0.000000	 0.000000	 0.089846	-3.783161	 0.005928	 0.024143	 0.963182	-2.871726	 101.796200	-0.213320	-89.955450	-38.148200	 47.019790	 29.510460	-105.783100	 38.733360	 93.045510	-166.005200	-76.688810	 166.172900	 15.208500	 5.323790	 0.000000	 0.000000	 0.000000	 0.000000	 0.000000	 0.000000	 0.000000
 0.002144	 1.280731	 0.062766	-0.321050	 0.003949	-179.994000	-176.681300	 0.841855	-16.268160	 2.104745	-9.835135	-0.076347	-4.969562	 67.697670	 4.430762	 1.292262	 28.425850	-2.713146	 175.978500	 2.037795	 16.249450	-2.462977	-11.806240	 0.011546	 5.152197	 68.616630	-4.534652	-1.288183	 28.361890	 2.710176	 0.946065	 2.717870	-13.106190	-1.762795	 3.283427	 3.982471	 1.648613	-4.124492	-11.595580	-101.478000	 1.740670	 90.353370	 1.078109	 59.993890	 1.702370	 23.825810	 6.936852	-27.240050	 19.990840	-5.126677	 13.267480	-6.580301	 5.266122	 0.000000	 0.000000	 0.000000	 0.000000	 0.000000	 0.000000	 0.000000	 0.089846	-3.783161	 0.005928	 0.024143	 0.963182	-2.871726	 101.796200	-0.213323	-89.955450	-56.702240	 44.924960	 45.934430	-101.299600	 39.761170	 88.370800	 142.292700	-81.779260	 102.973400	 15.208500	 5.323790	 0.000000	 0.000000	 0.000000	 0.000000	 0.000000	 0.000000	 0.000000
